<svg width="26" height="31" viewBox="0 0 26 31" fill="none" xmlns="http://www.w3.org/2000/svg">
<path d="M1.97885 21.2969C0.890462 21.2969 0 20.3151 0 19.115V11.4787C0 10.2787 0.890462 9.29688 1.97885 9.29688C3.06725 9.29688 3.95771 10.2787 3.95771 11.4787V19.1151C3.95771 20.3151 3.06725 21.2969 1.97885 21.2969Z" fill="white"/>
<path d="M24.0218 21.2969C22.9334 21.2969 22.043 20.3151 22.043 19.115V11.4787C22.043 10.2787 22.9334 9.29688 24.0218 9.29688C25.1102 9.29688 26.0007 10.2787 26.0007 11.4787V19.1151C26.0007 20.3151 25.1102 21.2969 24.0218 21.2969Z" fill="white"/>
<path d="M18.9036 23.9468V29.3728C18.9036 30.2952 18.2057 31.0006 17.293 31.0006C16.3803 31.0006 15.6825 30.2952 15.6825 29.3728V23.9468H10.3139V29.3728C10.3139 30.2952 9.5623 31.0006 8.70331 31.0006C7.84433 31.0006 7.09274 30.2952 7.09274 29.3728V23.9468H4.94531V9.29688H21.051V23.9468H18.9036Z" fill="white"/>
<path d="M20.7215 8H4.89062C5.10169 5.85002 7.31804 2 12.8588 2C18.1358 2 20.5104 5.85002 20.7215 8Z" fill="white"/>
<path d="M11.223 5.5C11.223 4.94999 10.7481 4.5 10.1676 4.5C9.58711 4.5 9.1122 4.94999 9.1122 5.5C9.1122 6.05001 9.58711 6.5 10.1676 6.5C10.7481 6.5 11.223 6.05001 11.223 5.5Z" fill="#1B171F"/>
<path d="M16.4999 5.5C16.4999 4.94999 16.025 4.5 15.4445 4.5C14.864 4.5 14.3891 4.94999 14.3891 5.5C14.3891 6.05001 14.864 6.5 15.4445 6.5C16.025 6.5 16.4999 6.05001 16.4999 5.5Z" fill="#1B171F"/>
<path d="M8.40308 4C8.19767 4 8.04357 3.86611 7.94089 3.59842L6.96515 0.92133C6.86242 0.586694 6.96515 0.185115 7.22193 0.0513067C7.4787 -0.0825787 7.78685 0.0513067 7.88952 0.385943L8.86527 3.06303C8.968 3.39767 8.86527 3.79925 8.60849 3.93306C8.55718 3.93306 8.50581 4 8.40308 4Z" fill="white"/>
<path d="M16.7867 3.3C16.7353 3.3 16.6327 3.3 16.5813 3.24477C16.3245 3.13432 16.2218 2.80308 16.3245 2.527L17.3003 0.318403C17.403 0.042328 17.7111 -0.0681274 17.9679 0.042328C18.2246 0.152783 18.3274 0.484022 18.2246 0.760097L17.2489 2.9687C17.1976 3.18954 16.9922 3.3 16.7867 3.3Z" fill="white"/>
</svg>
